<svg width="1200" height="900" viewBox="0 0 1200 900" fill="none" xmlns="http://www.w3.org/2000/svg">
  <rect width="1200" height="900" rx="40" fill="#F6EFE2"/>
  <rect x="60" y="620" width="1080" height="220" rx="26" fill="#EEE3CD"/>
  <ellipse cx="590" cy="520" rx="310" ry="164" fill="#1A2F7B"/>
  <ellipse cx="590" cy="500" rx="282" ry="140" fill="#FFF7EB"/>
  <ellipse cx="590" cy="496" rx="246" ry="112" fill="#F6B73A"/>
  <path d="M464 432C500 446 512 478 544 494C576 510 638 518 664 552" stroke="#CB2239" stroke-width="24" stroke-linecap="round"/>
  <path d="M542 418C568 444 570 470 598 488C628 506 686 504 730 532" stroke="#E2801D" stroke-width="20" stroke-linecap="round"/>
  <path d="M704 418C690 456 718 490 748 522" stroke="#6B8B2F" stroke-width="18" stroke-linecap="round"/>
  <circle cx="516" cy="530" r="24" fill="#F8D66B"/>
  <circle cx="722" cy="478" r="20" fill="#F8D66B"/>
  <circle cx="660" cy="564" r="18" fill="#CB2239"/>
  <rect x="126" y="120" width="324" height="390" rx="24" transform="rotate(-7 126 120)" fill="#A56A2C"/>
  <rect x="144" y="142" width="288" height="354" rx="18" transform="rotate(-7 144 142)" fill="#70471E"/>
  <rect x="162" y="176" width="248" height="18" rx="9" transform="rotate(-7 162 176)" fill="#E6D2B4"/>
  <rect x="168" y="220" width="226" height="14" rx="7" transform="rotate(-7 168 220)" fill="#D7BE9A"/>
  <rect x="172" y="252" width="234" height="14" rx="7" transform="rotate(-7 172 252)" fill="#D7BE9A"/>
  <rect x="180" y="286" width="206" height="14" rx="7" transform="rotate(-7 180 286)" fill="#D7BE9A"/>
  <text x="712" y="176" fill="#1A2F7B" font-family="Arial, sans-serif" font-size="74" font-weight="700">Sabores</text>
  <text x="712" y="250" fill="#CB2239" font-family="Arial, sans-serif" font-size="74" font-weight="800">da rota</text>
  <text x="712" y="330" fill="#5E5B58" font-family="Arial, sans-serif" font-size="32">Pratos, cidade e caminhada</text>
  <text x="712" y="374" fill="#5E5B58" font-family="Arial, sans-serif" font-size="32">em uma experiencia da Jua Literaria.</text>
</svg>
