<svg width="800" height="600" viewBox="0 0 800 600" fill="none" xmlns="http://www.w3.org/2000/svg">
  <rect width="800" height="600" fill="#F5EDE0"/>
  <rect width="800" height="180" fill="#CB2239"/>
  <circle cx="680" cy="90" r="36" fill="#F0B116" opacity="0.3"/>
  <circle cx="120" cy="90" r="52" fill="#F0B116" opacity="0.15"/>
  <rect x="200" y="270" width="400" height="220" rx="20" fill="#FFFDF7" stroke="#1A2F7B" stroke-width="4"/>
  <rect x="240" y="310" width="320" height="140" rx="16" fill="#F6EFE2"/>
  <circle cx="360" cy="380" r="46" fill="#FFFDF7" stroke="#CB2239" stroke-width="3"/>
  <circle cx="440" cy="380" r="46" fill="#FFFDF7" stroke="#CB2239" stroke-width="3"/>
  <circle cx="400" cy="380" r="20" fill="#F0B116"/>
  <path d="M390 370 L410 370 L400 390 Z" fill="#FFFDF7"/>
  <rect x="365" cy="365" rx="395" y="350" width="10" height="30" rx="2" fill="#1A2F7B"/>
  <rect x="360" y="410" width="80" height="12" rx="6" fill="#1A2F7B" opacity="0.1"/>
  <rect x="80" y="500" width="640" height="4" rx="2" fill="#1A2F7B" opacity="0.15"/>
  <text x="120" y="564" fill="#1A2F7B" font-family="Be Vietnam Pro, Arial, sans-serif" font-size="40" font-weight="800">Varanda do Sertao</text>
  <rect x="120" y="580" width="200" height="4" rx="2" fill="#CB2239"/>
  <text x="540" y="556" fill="#F0B116" font-family="Be Vietnam Pro, Arial, sans-serif" font-size="18" font-weight="700">Restaurante</text>
</svg>