<svg width="800" height="600" viewBox="0 0 800 600" fill="none" xmlns="http://www.w3.org/2000/svg">
  <rect width="800" height="600" fill="#FDF0E8"/>
  <rect width="800" height="180" fill="#1A2F7B"/>
  <circle cx="680" cy="90" r="36" fill="#F0B116" opacity="0.25"/>
  <circle cx="120" cy="90" r="52" fill="#F0B116" opacity="0.12"/>
  <circle cx="400" cy="340" r="100" fill="#FFFDF7" stroke="#CB2239" stroke-width="4"/>
  <circle cx="400" cy="340" r="80" fill="#FFF7EB"/>
  <circle cx="400" cy="340" r="50" fill="#F0B116" opacity="0.2"/>
  <circle cx="370" cy="320" r="12" fill="#CB2239"/>
  <circle cx="430" cy="320" r="12" fill="#CB2239"/>
  <path d="M370 360 Q400 380 430 360" stroke="#1A2F7B" stroke-width="4" fill="none" stroke-linecap="round"/>
  <rect x="360" y="450" width="80" height="60" rx="8" fill="#FFFDF7" stroke="#1A2F7B" stroke-width="3"/>
  <rect x="370" y="460" width="60" height="12" rx="6" fill="#F0B116"/>
  <rect x="370" y="478" width="40" height="8" rx="4" fill="#CB2239" opacity="0.6"/>
  <rect x="80" y="500" width="640" height="4" rx="2" fill="#1A2F7B" opacity="0.15"/>
  <text x="120" y="564" fill="#1A2F7B" font-family="Be Vietnam Pro, Arial, sans-serif" font-size="40" font-weight="800">Atelier Doce</text>
  <rect x="120" y="580" width="200" height="4" rx="2" fill="#CB2239"/>
  <text x="560" y="556" fill="#F0B116" font-family="Be Vietnam Pro, Arial, sans-serif" font-size="18" font-weight="700">Sobremesas</text>
</svg>