<svg width="800" height="600" viewBox="0 0 800 600" fill="none" xmlns="http://www.w3.org/2000/svg">
  <rect width="800" height="600" fill="#FFF8EC"/>
  <rect width="800" height="180" fill="#1A2F7B"/>
  <circle cx="680" cy="90" r="36" fill="#F0B116" opacity="0.25"/>
  <circle cx="120" cy="90" r="52" fill="#F0B116" opacity="0.12"/>
  <rect x="250" y="300" width="300" height="200" rx="24" fill="#FFFDF7" stroke="#1A2F7B" stroke-width="4"/>
  <rect x="280" y="330" width="240" height="140" rx="16" fill="#F6EFE2"/>
  <rect x="310" y="360" width="180" height="80" rx="40" fill="#1A2F7B" opacity="0.1"/>
  <circle cx="400" cy="400" r="30" fill="#F0B116"/>
  <circle cx="400" cy="400" r="16" fill="#1A2F7B"/>
  <path d="M385 400 L400 390 L415 400 L400 410 Z" fill="#FFFDF7"/>
  <rect x="220" y="320" width="8" height="160" rx="4" fill="#CB2239"/>
  <rect x="572" y="320" width="8" height="160" rx="4" fill="#CB2239"/>
  <rect x="80" y="500" width="640" height="4" rx="2" fill="#1A2F7B" opacity="0.15"/>
  <text x="120" y="564" fill="#1A2F7B" font-family="Be Vietnam Pro, Arial, sans-serif" font-size="40" font-weight="800">Cafe da Ponte</text>
  <rect x="120" y="580" width="200" height="4" rx="2" fill="#CB2239"/>
  <text x="540" y="556" fill="#F0B116" font-family="Be Vietnam Pro, Arial, sans-serif" font-size="18" font-weight="700">Café</text>
</svg>